<?xml version="1.0" standalone="no"?>
<!DOCTYPE svg PUBLIC "-//W3C//DTD SVG 20010904//EN"
 "http://www.w3.org/TR/2001/REC-SVG-20010904/DTD/svg10.dtd">
<svg version="1.0" xmlns="http://www.w3.org/2000/svg"
 width="360.000000pt" height="360.000000pt" viewBox="0 0 360.000000 360.000000"
 preserveAspectRatio="xMidYMid meet">

<g transform="translate(0.000000,360.000000) scale(0.100000,-0.100000)"
fill="#000000" stroke="none">
<path d="M740 2180 c-25 -5 -82 -28 -126 -50 -131 -64 -230 -188 -268 -336
-20 -79 -20 -219 0 -298 48 -188 205 -340 409 -397 32 -9 99 -14 185 -14 155
0 236 19 378 85 74 35 282 163 282 174 0 2 -28 -11 -62 -30 -67 -36 -176 -74
-273 -95 -89 -20 -315 -17 -395 5 -166 45 -295 138 -350 251 -22 44 -25 64
-25 160 0 101 2 114 28 163 108 204 392 286 637 183 136 -57 283 -181 448
-381 53 -63 126 -151 162 -195 228 -273 396 -375 619 -375 266 1 433 114 541
364 l20 48 -52 -57 c-161 -176 -391 -262 -593 -220 -194 40 -316 143 -607 510
-227 287 -376 408 -595 481 -63 21 -102 27 -198 30 -66 2 -140 -1 -165 -6z"/>
<path d="M2655 2110 c17 -11 35 -20 40 -20 6 0 -5 9 -23 20 -42 26 -56 26 -17
0z"/>
<path d="M2298 2063 c7 -3 16 -2 19 1 4 3 -2 6 -13 5 -11 0 -14 -3 -6 -6z"/>
<path d="M2388 2053 c7 -3 16 -2 19 1 4 3 -2 6 -13 5 -11 0 -14 -3 -6 -6z"/>
<path d="M2468 2033 c7 -3 16 -2 19 1 4 3 -2 6 -13 5 -11 0 -14 -3 -6 -6z"/>
<path d="M908 1983 c12 -2 32 -2 45 0 12 2 2 4 -23 4 -25 0 -35 -2 -22 -4z"/>
<path d="M1780 1969 c0 -5 5 -7 10 -4 6 3 10 8 10 11 0 2 -4 4 -10 4 -5 0 -10
-5 -10 -11z"/>
<path d="M1137 1919 c7 -7 15 -10 18 -7 3 3 -2 9 -12 12 -14 6 -15 5 -6 -5z"/>
<path d="M1237 1889 c7 -7 15 -10 18 -7 3 3 -2 9 -12 12 -14 6 -15 5 -6 -5z"/>
<path d="M2150 1266 c0 -2 7 -7 16 -10 8 -3 12 -2 9 4 -6 10 -25 14 -25 6z"/>
<path d="M2298 1233 c7 -3 16 -2 19 1 4 3 -2 6 -13 5 -11 0 -14 -3 -6 -6z"/>
</g>
</svg>
